<svg xmlns="http://www.w3.org/2000/svg" viewBox="0 0 512 512"><defs><linearGradient id="g" x1="0" y1="0" x2="1" y2="1"><stop stop-color="#10d7ff"/><stop offset="1" stop-color="#116cff"/></linearGradient></defs><rect width="512" height="512" rx="120" fill="#071827"/><path d="M72 195c48 0 48-35 96-35s48 35 96 35 48-35 96-35 48 35 80 35v58c-48 0-48-35-96-35s-48 35-96 35-48-35-96-35-48 35-80 35zm0 108c48 0 48-35 96-35s48 35 96 35 48-35 96-35 48 35 80 35v58c-48 0-48-35-96-35s-48 35-96 35-48-35-96-35-48 35-80 35z" fill="url(#g)"/></svg>